<svg width="20" height="16" viewBox="0 0 20 16" fill="none" xmlns="http://www.w3.org/2000/svg">
<path d="M1.97818 11.2856H18.6925C19.0475 11.2856 19.3353 10.9978 19.3353 10.6428V1.64279C19.3353 1.28775 19.0475 0.99993 18.6925 0.99993H1.97818C1.62314 0.99993 1.33533 1.28775 1.33533 1.64279V10.6428C1.33533 10.9978 1.62314 11.2856 1.97818 11.2856Z" stroke="#545454" stroke-linejoin="round"/>
<path d="M2.62109 13.2144H18.0497" stroke="#545454" stroke-linecap="round" stroke-linejoin="round"/>
<path d="M3.90674 15.1431H16.7639" stroke="#545454" stroke-linecap="round" stroke-linejoin="round"/>
<path d="M10.3354 9.35728C12.1106 9.35728 13.5497 7.9182 13.5497 6.143C13.5497 4.3678 12.1106 2.92871 10.3354 2.92871C8.56018 2.92871 7.12109 4.3678 7.12109 6.143C7.12109 7.9182 8.56018 9.35728 10.3354 9.35728Z" stroke="#545454" stroke-linecap="round" stroke-linejoin="round"/>
<path d="M19.3354 4.21429C18.4829 4.21429 17.6653 3.87564 17.0625 3.27284C16.4597 2.67005 16.1211 1.85248 16.1211 1" stroke="#545454" stroke-linecap="round" stroke-linejoin="round"/>
<path d="M1.33533 4.21429C1.75743 4.21429 2.17541 4.13115 2.56538 3.96961C2.95536 3.80808 3.3097 3.57132 3.60817 3.27284C3.90664 2.97437 4.14341 2.62003 4.30494 2.23005C4.46647 1.84008 4.54961 1.42211 4.54961 1" stroke="#545454" stroke-linecap="round" stroke-linejoin="round"/>
<path d="M19.3354 8.07129C18.4829 8.07129 17.6653 8.40994 17.0625 9.01273C16.4597 9.61553 16.1211 10.4331 16.1211 11.2856" stroke="#545454" stroke-linecap="round" stroke-linejoin="round"/>
<path d="M1.33533 8.07129C1.75743 8.07129 2.17541 8.15443 2.56538 8.31596C2.95536 8.47749 3.3097 8.71426 3.60817 9.01273C3.90664 9.31121 4.14341 9.66555 4.30494 10.0555C4.46647 10.4455 4.54961 10.8635 4.54961 11.2856" stroke="#545454" stroke-linecap="round" stroke-linejoin="round"/>
</svg>
