<svg width="26" height="26" viewBox="0 0 26 26" fill="none" xmlns="http://www.w3.org/2000/svg">
<path d="M4.7504 18.1094C2.63915 18.7428 1.33331 19.6178 1.33331 20.5842C1.33331 22.5172 6.55665 24.0842 13 24.0842C19.4433 24.0842 24.6666 22.5172 24.6666 20.5842C24.6666 19.6178 23.3608 18.7428 21.2495 18.1094" stroke="black" stroke-width="2" stroke-linecap="round" stroke-linejoin="round"/>
<path d="M13 19.4173C13 19.4173 20.5834 14.4613 20.5834 8.7317C20.5834 4.64606 17.1882 1.33398 13 1.33398C8.81186 1.33398 5.41669 4.64606 5.41669 8.7317C5.41669 14.4613 13 19.4173 13 19.4173Z" fill="black" stroke="black" stroke-width="2" stroke-linejoin="round"/>
<path d="M13 11.8333C14.6108 11.8333 15.9166 10.5275 15.9166 8.91667C15.9166 7.30585 14.6108 6 13 6C11.3892 6 10.0833 7.30585 10.0833 8.91667C10.0833 10.5275 11.3892 11.8333 13 11.8333Z" fill="#E8E8E8" stroke="black" stroke-width="2" stroke-linejoin="round"/>
</svg>
